<svg width="22" height="18" viewBox="0 0 22 18" fill="none" xmlns="http://www.w3.org/2000/svg">
<path d="M19.3262 4.9375C19.3262 5.14258 19.3262 5.30664 19.3262 5.51172C19.3262 11.2129 15.0195 17.7344 7.10352 17.7344C4.64258 17.7344 2.38672 17.0371 0.5 15.8066C0.828125 15.8477 1.15625 15.8887 1.52539 15.8887C3.53516 15.8887 5.38086 15.1914 6.85742 14.043C4.9707 14.002 3.37109 12.7715 2.83789 11.0488C3.125 11.0898 3.37109 11.1309 3.6582 11.1309C4.02734 11.1309 4.4375 11.0488 4.76562 10.9668C2.79688 10.5566 1.32031 8.83398 1.32031 6.74219V6.70117C1.89453 7.0293 2.5918 7.19336 3.28906 7.23438C2.09961 6.45508 1.36133 5.14258 1.36133 3.66602C1.36133 2.8457 1.56641 2.10742 1.93555 1.49219C4.06836 4.07617 7.26758 5.79883 10.8359 6.00391C10.7539 5.67578 10.7129 5.34766 10.7129 5.01953C10.7129 2.64062 12.6406 0.712891 15.0195 0.712891C16.25 0.712891 17.3574 1.20508 18.1777 2.06641C19.1211 1.86133 20.0645 1.49219 20.8848 1C20.5566 2.02539 19.9004 2.8457 18.998 3.37891C19.8594 3.29688 20.7207 3.05078 21.459 2.72266C20.8848 3.58398 20.1465 4.32227 19.3262 4.9375Z" fill="#969696"/>
</svg>
