<svg width="23" height="17" viewBox="0 0 23 17" fill="none" xmlns="http://www.w3.org/2000/svg">
<path d="M22.3926 2.83008C22.8848 4.55273 22.8848 8.24414 22.8848 8.24414C22.8848 8.24414 22.8848 11.8945 22.3926 13.6582C22.1465 14.6426 21.3672 15.3809 20.4238 15.627C18.6602 16.0781 11.6875 16.0781 11.6875 16.0781C11.6875 16.0781 4.67383 16.0781 2.91016 15.627C1.9668 15.3809 1.1875 14.6426 0.941406 13.6582C0.449219 11.8945 0.449219 8.24414 0.449219 8.24414C0.449219 8.24414 0.449219 4.55273 0.941406 2.83008C1.1875 1.8457 1.9668 1.06641 2.91016 0.820312C4.67383 0.328125 11.6875 0.328125 11.6875 0.328125C11.6875 0.328125 18.6602 0.328125 20.4238 0.820312C21.3672 1.06641 22.1465 1.8457 22.3926 2.83008ZM9.39062 11.5664L15.2148 8.24414L9.39062 4.92188V11.5664Z" fill="#969696"/>
</svg>
